<svg fill="none" height="21" viewBox="0 0 21 21" width="21" xmlns="http://www.w3.org/2000/svg"><path d="m18.9 0h-16.8c-1.155 0-2.1.945-2.1 2.1v16.8c0 1.155.945 2.1 2.1 2.1h16.8c1.155 0 2.1-.945 2.1-2.1v-16.8c0-1.155-.945-2.1-2.1-2.1zm-12.6 17.85h-3.15v-9.45h3.15zm-1.575-11.235c-1.05 0-1.89-.84-1.89-1.89s.84-1.89 1.89-1.89 1.89.84 1.89 1.89-.84 1.89-1.89 1.89zm13.125 11.235h-3.15v-5.565c0-.84-.735-1.575-1.575-1.575s-1.575.735-1.575 1.575v5.565h-3.15v-9.45h3.15v1.26c.525-.84 1.68-1.47 2.625-1.47 1.995 0 3.675 1.68 3.675 3.675z" fill="#000"/></svg>